<svg width="9" height="14" viewBox="0 0 9 14" fill="none" xmlns="http://www.w3.org/2000/svg">
<path d="M9 9.541C9 8.1389 7.77714 6.91883 6.02249 6.57233L3.41661 6.06971C2.94781 5.97731 2.54469 5.77286 2.24595 5.47396C1.95891 5.19186 1.80053 4.8314 1.80053 4.459C1.80053 3.5441 2.75705 2.8 3.93312 2.8H5.06688C6.15387 2.8 7.06539 3.43564 7.18686 4.27844C7.24265 4.66274 7.68896 4.94061 8.18116 4.89581C8.67516 4.85241 9.03059 4.50593 8.9748 4.12233C8.76245 2.64883 7.23185 1.53229 5.36292 1.42239V0.7C5.36292 0.315 4.958 0 4.4631 0C3.9682 0 3.56328 0.315 3.56328 0.7V1.42939C1.57018 1.57639 0 2.87068 0 4.45968C0 5.14498 0.296039 5.81417 0.827833 6.33777C1.36143 6.87327 2.12358 7.25974 2.97751 7.42844L5.58339 7.93097C6.5345 8.11857 7.19856 8.78079 7.19856 9.54169C7.19856 9.98199 6.97541 10.3978 6.57049 10.7128C6.16647 11.0278 5.63198 11.2007 5.06599 11.2007H3.93221C2.84523 11.2007 1.93371 10.5651 1.81223 9.72233C1.75644 9.33803 1.30744 9.06147 0.817933 9.10487C0.323932 9.14827 -0.0314933 9.49484 0.0242955 9.87844C0.233954 11.333 1.72855 12.4383 3.56419 12.5734V13.3C3.56419 13.685 3.96911 14 4.46401 14C4.95891 14 5.36383 13.685 5.36383 13.3V12.5776C6.29874 12.5223 7.17247 12.2255 7.84463 11.7026C8.58969 11.123 9 10.3558 9 9.541Z" fill="black"/>
</svg>
