<svg width="44" height="44" viewBox="0 0 44 44" fill="none" xmlns="http://www.w3.org/2000/svg">
<g clip-path="url(#clip0_491_59)">
<rect width="44" height="44" fill="#F4F4F4"/>
<path d="M2.78525 23.7256C2.78525 23.7256 1.2084 33.3907 10.8826 39.855C10.8826 39.855 15.68 44.0036 22.9935 42.2333C22.9935 42.2333 31.5279 42.6607 35.6733 37.8415C35.6733 37.8415 41.6465 32.9616 41.2202 24.2996C41.2202 24.2996 39.2713 28.6914 32.2306 29.1188C32.2306 29.1188 26.1652 29.4031 22.4155 23.2839C22.4155 23.2839 18.2394 28.9364 13.8503 28.9364C13.8503 28.9364 7.62958 30.5296 2.78525 23.7238V23.7256Z" fill="black"/>
<path d="M3.47882 10.0889L3.84368 0.0786743C3.84368 0.0786743 9.24795 3.45834 13.554 3.03633H30.6085C30.6085 3.03633 34.2391 3.7963 40.5718 0.0786743V9.70982C40.5718 9.70982 38.2074 6.58408 33.9013 5.90815C33.9013 5.90815 26.5553 4.13427 22.4191 11.9057C22.4191 11.9057 19.464 5.65423 13.1314 5.99219C13.1314 5.99219 8.43334 4.55271 3.47882 10.0871V10.0889Z" fill="black" stroke="#231F20" stroke-width="0.5" stroke-miterlimit="10"/>
<path d="M12.6003 27.3002C18.0211 27.3002 22.4154 22.9033 22.4154 17.4795C22.4154 12.0557 18.0211 7.65881 12.6003 7.65881C7.17959 7.65881 2.78522 12.0557 2.78522 17.4795C2.78522 22.9033 7.17959 27.3002 12.6003 27.3002Z" stroke="black" stroke-width="4" stroke-miterlimit="10"/>
<path d="M32.2305 27.3002C37.6512 27.3002 42.0456 22.9033 42.0456 17.4795C42.0456 12.0557 37.6512 7.65881 32.2305 7.65881C26.8098 7.65881 22.4154 12.0557 22.4154 17.4795C22.4154 22.9033 26.8098 27.3002 32.2305 27.3002Z" stroke="black" stroke-width="4" stroke-miterlimit="10"/>
<path d="M29.1297 23.6604C30.8172 23.6604 32.1852 22.2665 32.1852 20.5472C32.1852 18.8278 30.8172 17.434 29.1297 17.434C27.4421 17.434 26.0741 18.8278 26.0741 20.5472C26.0741 22.2665 27.4421 23.6604 29.1297 23.6604Z" fill="black"/>
<path d="M29.1296 22.4151C29.9171 22.4151 30.5555 21.7647 30.5555 20.9623C30.5555 20.1599 29.9171 19.5095 29.1296 19.5095C28.3421 19.5095 27.7037 20.1599 27.7037 20.9623C27.7037 21.7647 28.3421 22.4151 29.1296 22.4151Z" fill="white"/>
<path d="M15.6852 23.6604C17.3727 23.6604 18.7407 22.2665 18.7407 20.5472C18.7407 18.8278 17.3727 17.434 15.6852 17.434C13.9977 17.434 12.6296 18.8278 12.6296 20.5472C12.6296 22.2665 13.9977 23.6604 15.6852 23.6604Z" fill="black"/>
<path d="M15.6852 22.4151C16.4727 22.4151 17.1111 21.7647 17.1111 20.9623C17.1111 20.1599 16.4727 19.5095 15.6852 19.5095C14.8977 19.5095 14.2593 20.1599 14.2593 20.9623C14.2593 21.7647 14.8977 22.4151 15.6852 22.4151Z" fill="white"/>
<path d="M14.1953 42.2923V40.1858C14.1953 40.1858 15.0857 38.7875 16.0972 40.1858V42.2923H14.1953Z" fill="white"/>
<path d="M16.6318 42.2923V40.1858C16.6318 40.1858 17.5223 38.7875 18.5338 40.1858V42.2923H16.6318Z" fill="white"/>
<path d="M19.1154 42.2923V40.1858C19.1154 40.1858 20.0059 38.7875 21.0174 40.1858V42.2923H19.1154Z" fill="white"/>
<path d="M22.9971 42.2923V40.1858C22.9971 40.1858 23.8875 38.7875 24.899 40.1858V42.2923H22.9971Z" fill="white"/>
<path d="M25.4156 42.2923V40.1858C25.4156 40.1858 26.3061 38.7875 27.3176 40.1858V42.2923H25.4156Z" fill="white"/>
<path d="M27.9931 42.2923V40.1858C27.9931 40.1858 28.8836 38.7875 29.8951 40.1858V42.2923H27.9931Z" fill="white"/>
<path d="M11.9898 44H39.0618C39.0618 44 40.7903 43.2937 39.0618 42.2923H8.5345C8.5345 42.2923 3.58179 42.1028 1.91102 39.5653C1.91102 39.5653 0.816437 38.986 1.04764 40.2538C1.04764 40.2538 2.89 44 11.9916 44H11.9898Z" fill="black"/>
<path d="M9.92888 40.3199L9.39062 41.0888C9.39062 41.0888 4.90392 41.5627 1.95433 36.2911C1.95433 36.2911 -0.225797 32.7345 0.0198518 28.6198C0.0198518 28.6198 0.182414 24.7913 1.93266 21.8981C1.93266 21.8981 1.60754 28.7557 3.03266 31.4988C3.03266 31.4988 4.2898 35.9711 9.93069 40.3199H9.92888Z" fill="black"/>
<path d="M34.6582 40.9279L33.8995 40.3628C33.8995 40.3628 36.6324 39.1987 39.5169 34.5405C39.5169 34.5405 42.2986 29.9324 42.0457 25.6801V22.996L42.3509 22.4399C42.3509 22.4399 43.6749 24.5428 43.8826 27.5845C43.8826 27.5845 44.504 31.2824 42.8802 34.5995C42.8802 34.5995 42.0348 37.8147 38.6825 39.9551C38.6825 39.9551 36.4192 41.3213 34.6582 40.9297V40.9279Z" fill="black"/>
</g>
<defs>
<clipPath id="clip0_491_59">
<rect width="44" height="44" fill="white"/>
</clipPath>
</defs>
</svg>
