<svg width="35" height="35" viewBox="0 0 35 35" fill="none" xmlns="http://www.w3.org/2000/svg">
<path d="M32.6191 13.5259L10.4329 0.955409C7.21984 -0.863274 3.88059 0.159376 1.99397 1.97806C0.117081 3.78569 -0.898153 6.94951 1.06043 9.93827L6.01781 17.5005L1.06043 25.0626C-0.898153 28.0514 0.119026 31.2134 1.99397 33.0229C3.18624 34.1708 4.95402 35 6.90482 35C8.04457 35 9.24654 34.7162 10.431 34.0455L32.6172 21.475C34.109 20.6293 35 19.1441 35 17.5005C35 15.8568 34.1109 14.3716 32.6191 13.5259ZM31.6215 19.8922L9.43528 32.4627C6.97878 33.8575 4.63688 32.938 3.38432 31.7293C2.1376 30.5297 1.21574 28.3186 2.71336 26.0337L7.70446 18.4199H18.4697C19.0065 18.4199 19.4422 18.0072 19.4422 17.4986C19.4422 16.99 19.0065 16.5773 18.4697 16.5773H7.70446L2.71336 8.96353C1.2138 6.67866 2.1376 4.46748 3.38432 3.26793C4.18954 2.49033 5.44447 1.83433 6.89153 1.83433C7.6948 1.83433 8.55805 2.03703 9.43717 2.53454L31.6234 15.105C32.5219 15.6136 33.0588 16.5091 33.0588 17.4967C33.0588 18.4844 32.5201 19.3836 31.6215 19.8922Z" fill="#25314C"/>
</svg>
