<svg width="30" height="30" viewBox="0 0 30 30" fill="none" xmlns="http://www.w3.org/2000/svg">
<path d="M24.375 0H5.625C1.875 0 0 1.875 0 5.625V24.375C0 28.125 1.875 30 5.625 30H24.375C28.125 30 30 28.125 30 24.375V5.625C30 1.875 28.125 0 24.375 0ZM15.0134 6.66667C17.7751 6.66667 20.0134 8.905 20.0134 11.6667C20.0134 14.4283 17.7751 16.6667 15.0134 16.6667C12.2518 16.6667 10.0134 14.4283 10.0134 11.6667C10.0134 8.905 12.2518 6.66667 15.0134 6.66667ZM24.3667 27.5H5.63334C5.41667 27.5 5.21668 27.5 5.01668 27.4833C5.23335 24.65 6.8334 20.9499 12.1501 20.9499H17.8499C23.1499 20.9499 24.7666 24.6833 24.9833 27.4833C24.7833 27.5 24.5833 27.5 24.3667 27.5Z" fill="#25314C"/>
</svg>
